<?xml version="1.0" encoding="UTF-8" standalone="no"?>
<svg
   viewBox="0 0 1500 1500"
   version="1.1"
   id="svg2"
   width="1500"
   height="1500"
   xmlns:xlink="http://www.w3.org/1999/xlink"
   xmlns="http://www.w3.org/2000/svg"
   xmlns:svg="http://www.w3.org/2000/svg">
  <defs
     id="defs2">
    <style
       id="style1">.cls-1{fill:url(#linear-gradient);}</style>
    <linearGradient
       id="linear-gradient"
       x1="996.4704"
       y1="1828.6106"
       x2="696.02838"
       y2="1812.309"
       gradientUnits="userSpaceOnUse">
      <stop
         offset="0"
         stop-color="#4397ff"
         id="stop1"
         style="stop-color:#22a4ff;stop-opacity:1;" />
      <stop
         offset="0.5"
         stop-color="#4397ff"
         id="stop4"
         style="stop-color:#6362ff;stop-opacity:1;" />
      <stop
         offset="1"
         stop-color="#8f52ff"
         id="stop2"
         style="stop-color:#b72bff;stop-opacity:1;" />
    </linearGradient>
    <linearGradient
       xlink:href="#linear-gradient"
       id="linearGradient4"
       x1="75.000252"
       y1="1349.9993"
       x2="675.00037"
       y2="150"
       gradientUnits="userSpaceOnUse" />
  </defs>
  <path
     class="cls-1"
     d="m 1012.5001,1125 150.0005,-300 203.3351,406.6713 -300,-2e-4 L 1050.0002,1200 h -10e-5 z M 1200,1500 h 300 l -134.1643,-268.3287 -300,-2e-4 z M 787.5,675 937.50049,375 l -37.5,-75 -150.00012,299.99988 z m 211.25269,556.6711 -114.589,-10e-5 L 1124.9999,749.99927 975.00049,450 450,1499.9995 l 682.917,3e-4 z M 750.00037,599.99976 900.00049,300 750.00061,0 0,1499.9993 l 300,2e-4 450.00037,-899.99962 z"
     id="path2"
     style="fill:url(#linearGradient4);fill-opacity:1;fill-rule:nonzero" />
  <path
     style="fill-rule:nonzero"
     d="m 0,1499.9993 150.0005,-300 v 0"
     id="path12" />
  <path
     style="fill-rule:nonzero"
     d="M 600.00011,300 750.00061,0 v 0"
     id="path12-8" />
</svg>
